# xmcd
#
# Track frame offsets:
#	150
#	23525
#	41447
#	56597
#	81752
#	107540
#	130207
#	156647
#	169412
#	191160
#	203500
#	224392
#	236275
#	252187
#	273207
#
# Disc length: 3882 seconds
#
# Revision: 1
# Processed by: cddbd v1.4PL0 Copyright (c) Steve Scherf et al.
# Submitted via: audiograbber 1.81.03
#
DISCID=c90f280f
DTITLE=Various Artist - Rounder Europe - Blues Review - CD 2
DYEAR=1997
DGENRE=Blues
TTITLE0=Ronnie Earl - Eddie's Gospel Groove
TTITLE1=Pat Boyack and Prowlers - Shuck 'n' Jive
TTITLE2=James Harman Band - Stranger Blues
TTITLE3=Lamont Cranston Blues Band - I Don't Wanna Know
TTITLE4=Jim Suhler and Monkey Beat - Bones In The Closet
TTITLE5=Little Mike and Tornadoes - Rainy Day Women
TTITLE6=Mike Morgan and The Crawl - Worried No More
TTITLE7=Monster Mike Welch - Lover And A Friend
TTITLE8=George Thorogood and The Destroyers - Baby Please Set A Date
TTITLE9=Rusty Zinn - Bad Boy
TTITLE10=Gary Primich - Bad Poker Hand
TTITLE11=Duke Robillard - Shoulda Coulda Woulda
TTITLE12=Rod Piazza and The Mighty Flyers - Feeling Good
TTITLE13=Michelle Willson - You're So Mean To Me
TTITLE14=Marc Hummel - Peaches Tree
EXTD=
EXTT0=
EXTT1=
EXTT2=
EXTT3=
EXTT4=
EXTT5=
EXTT6=
EXTT7=
EXTT8=
EXTT9=
EXTT10=
EXTT11=
EXTT12=
EXTT13=
EXTT14=
PLAYORDER=
